<svg width="172" height="41" viewBox="0 0 172 41" fill="none" xmlns="http://www.w3.org/2000/svg">
<path d="M171.945 7.7499C171.672 9.19724 170.278 10.1497 168.831 9.8773C167.383 9.60489 166.431 8.21075 166.703 6.7634C166.976 5.31605 168.37 4.36358 169.817 4.636C171.265 4.90841 172.217 6.30255 171.945 7.7499ZM105.677 15.6285L105.287 15.3157L105.677 15.6285ZM47.4299 33.157L47.663 33.5994L47.4299 33.157ZM2.78939 24.5576C2.94178 24.3273 3.252 24.2641 3.48229 24.4165L7.23508 26.8998C7.46537 27.0521 7.52852 27.3624 7.37613 27.5927C7.22376 27.8229 6.91354 27.8861 6.68324 27.7337L3.34743 25.5264L1.14009 28.8622C0.987715 29.0925 0.677498 29.1556 0.447194 29.0033C0.216905 28.8509 0.15375 28.5407 0.306138 28.3104L2.78939 24.5576ZM169.127 7.71626C162.116 4.71301 150.529 1.52118 138.594 1.71678C126.663 1.91232 114.451 5.48884 106.067 15.9413L105.287 15.3157C113.922 4.54989 126.471 0.915319 138.578 0.716914C150.68 0.518569 162.407 3.74996 169.521 6.79704L169.127 7.71626ZM106.067 15.9413C100.806 22.5008 100.58 27.2702 102.666 30.4491C104.799 33.7006 109.496 35.55 114.649 35.8913C119.787 36.2316 125.188 35.0569 128.602 32.4794C130.299 31.1975 131.489 29.5828 131.941 27.645C132.393 25.7075 132.122 23.3843 130.78 20.6585L131.677 20.2168C133.096 23.0983 133.431 25.6592 132.915 27.8721C132.399 30.0848 131.046 31.8867 129.204 33.2775C125.538 36.0452 119.872 37.2394 114.583 36.8891C109.309 36.5398 104.219 34.639 101.83 30.9977C99.3933 27.2838 99.9117 22.0177 105.287 15.3157L106.067 15.9413ZM130.78 20.6585C128.083 15.1807 123.983 12.002 118.748 10.5986C113.489 9.18843 107.052 9.56351 99.7051 11.2812C85.008 14.7174 66.8725 23.4737 47.663 33.5994L47.1967 32.7147C66.3947 22.5952 84.6376 13.7771 99.4775 10.3075C106.899 8.57237 113.521 8.16174 119.007 9.63274C124.519 11.1106 128.853 14.4799 131.677 20.2168L130.78 20.6585ZM47.663 33.5994C32.2304 41.7341 21.4946 42.0964 14.33 39.1012C7.16957 36.1077 3.71046 29.816 2.71642 24.9332L3.69632 24.7337C4.64095 29.3738 7.93064 35.342 14.7158 38.1786C21.4968 41.0135 31.9034 40.7761 47.1967 32.7147L47.663 33.5994Z" fill="black"/>
</svg>
