<svg width="200" height="139" viewBox="0 0 200 139" fill="none" xmlns="http://www.w3.org/2000/svg">
<path d="M192.81 138.511H6.25529C4.59628 138.511 3.00522 137.853 1.83213 136.682C0.659036 135.511 0 133.922 0 132.265C67.6262 124.418 133.981 124.418 199.066 132.265C199.066 133.922 198.407 135.511 197.233 136.682C196.06 137.853 194.469 138.511 192.81 138.511Z" fill="#2F2E41"/>
<path d="M199.066 132.633L0 132.266L23.071 93.5044L23.1814 93.3207V7.89552C23.1813 6.85864 23.3858 5.83189 23.7831 4.87393C24.1805 3.91596 24.7629 3.04553 25.4972 2.31235C26.2315 1.57917 27.1033 0.997589 28.0627 0.600833C29.0221 0.204077 30.0504 -8.6411e-05 31.0888 2.74356e-08H166.873C167.911 -8.6411e-05 168.94 0.204077 169.899 0.600833C170.858 0.997589 171.73 1.57917 172.464 2.31235C173.199 3.04553 173.781 3.91596 174.179 4.87393C174.576 5.83189 174.78 6.85864 174.78 7.89552V93.9085L199.066 132.633Z" fill="#3F3D56"/>
<path d="M30.9087 5.51109C30.2258 5.51186 29.5711 5.78306 29.0883 6.26521C28.6054 6.74736 28.3338 7.40106 28.333 8.08292V85.9726C28.3338 86.6545 28.6054 87.3082 29.0883 87.7903C29.5712 88.2724 30.2258 88.5436 30.9087 88.5444H168.157C168.84 88.5436 169.495 88.2724 169.978 87.7903C170.46 87.3081 170.732 86.6545 170.733 85.9726V8.08292C170.732 7.40107 170.461 6.74739 169.978 6.26525C169.495 5.78311 168.84 5.51189 168.157 5.51109H30.9087Z" fill="white"/>
<path d="M31.4844 98.8317C31.2733 98.8321 31.0668 98.8927 30.8891 99.0063C30.7114 99.12 30.57 99.282 30.4815 99.4733L23.3726 114.904C23.2952 115.072 23.2613 115.257 23.2741 115.441C23.2869 115.626 23.346 115.804 23.4459 115.96C23.5457 116.115 23.6832 116.243 23.8456 116.332C24.008 116.421 24.1902 116.467 24.3753 116.467H173.872C174.06 116.467 174.245 116.419 174.409 116.328C174.573 116.236 174.712 116.104 174.811 115.944C174.909 115.785 174.966 115.602 174.974 115.414C174.983 115.227 174.943 115.04 174.859 114.872L167.131 99.441C167.04 99.2575 166.9 99.1032 166.725 98.9956C166.551 98.8879 166.35 98.8311 166.144 98.8317H31.4844Z" fill="#2F2E41"/>
<path d="M98.98 4.22517C99.8945 4.22517 100.636 3.48495 100.636 2.57185C100.636 1.65875 99.8945 0.918533 98.98 0.918533C98.0656 0.918533 97.3242 1.65875 97.3242 2.57185C97.3242 3.48495 98.0656 4.22517 98.98 4.22517Z" fill="white"/>
<path d="M84.2864 119.406C84.0438 119.407 83.8079 119.487 83.6153 119.634C83.4227 119.781 83.284 119.988 83.2206 120.222L81.4374 126.835C81.3933 126.999 81.3875 127.17 81.4204 127.336C81.4533 127.502 81.524 127.658 81.627 127.792C81.7301 127.927 81.8627 128.035 82.0147 128.11C82.1666 128.185 82.3338 128.224 82.5032 128.224H116.416C116.592 128.224 116.765 128.182 116.921 128.102C117.078 128.021 117.213 127.904 117.315 127.761C117.417 127.618 117.483 127.453 117.508 127.279C117.533 127.105 117.516 126.927 117.458 126.761L115.166 120.148C115.091 119.931 114.95 119.744 114.763 119.611C114.576 119.478 114.352 119.406 114.123 119.406H84.2864Z" fill="#2F2E41"/>
<path d="M174.781 92.0348V93.5043H23.0713L23.1855 93.3208V92.0348H174.781Z" fill="#2F2E41"/>
<path d="M152.568 62.1251H46.4975C45.9767 62.1245 45.4774 61.9176 45.1092 61.5499C44.741 61.1822 44.5338 60.6837 44.5332 60.1638V33.8918C44.5338 33.3718 44.741 32.8733 45.1092 32.5056C45.4774 32.1379 45.9767 31.9311 46.4975 31.9305H152.568C153.089 31.9311 153.588 32.1379 153.956 32.5056C154.325 32.8733 154.532 33.3718 154.532 33.8918V60.1638C154.532 60.6837 154.325 61.1822 153.956 61.5499C153.588 61.9176 153.089 62.1245 152.568 62.1251ZM46.4975 32.715C46.185 32.7154 45.8854 32.8395 45.6645 33.0601C45.4435 33.2807 45.3193 33.5798 45.3189 33.8918V60.1638C45.3193 60.4758 45.4435 60.7749 45.6645 60.9955C45.8854 61.2161 46.185 61.3402 46.4975 61.3405H152.568C152.881 61.3402 153.18 61.2161 153.401 60.9955C153.622 60.7749 153.746 60.4758 153.747 60.1638V33.8918C153.746 33.5798 153.622 33.2807 153.401 33.06C153.18 32.8394 152.881 32.7153 152.568 32.715L46.4975 32.715Z" fill="#E6E6E6"/>
<path d="M62.9779 54.009C67.397 54.009 70.9793 50.4321 70.9793 46.0197C70.9793 41.6073 67.397 38.0303 62.9779 38.0303C58.5589 38.0303 54.9766 41.6073 54.9766 46.0197C54.9766 50.4321 58.5589 54.009 62.9779 54.009Z" fill="#E6E6E6"/>
<path d="M81.4577 40.6935C81.2824 40.6932 81.1088 40.7274 80.9467 40.7942C80.7847 40.861 80.6375 40.9591 80.5134 41.0827C80.3894 41.2064 80.2909 41.3533 80.2238 41.515C80.1566 41.6767 80.1221 41.85 80.1221 42.025C80.1221 42.2001 80.1566 42.3734 80.2238 42.5351C80.2909 42.6968 80.3894 42.8437 80.5134 42.9673C80.6375 43.091 80.7847 43.189 80.9467 43.2558C81.1088 43.3226 81.2824 43.3569 81.4577 43.3566H144.326C144.679 43.3566 145.019 43.2163 145.269 42.9666C145.519 42.7169 145.659 42.3782 145.659 42.025C145.659 41.6719 145.519 41.3332 145.269 41.0835C145.019 40.8338 144.679 40.6935 144.326 40.6935H81.4577Z" fill="#E6E6E6"/>
<path d="M81.4576 48.6828C81.1039 48.6828 80.7647 48.8231 80.5146 49.0728C80.2645 49.3225 80.124 49.6612 80.124 50.0144C80.124 50.3675 80.2645 50.7062 80.5146 50.9559C80.7647 51.2056 81.1039 51.3459 81.4576 51.3459H108.51C108.864 51.3459 109.203 51.2056 109.453 50.9559C109.703 50.7062 109.843 50.3675 109.843 50.0144C109.843 49.6612 109.703 49.3225 109.453 49.0728C109.203 48.8231 108.864 48.6828 108.51 48.6828H81.4576Z" fill="#E6E6E6"/>
</svg>
