<svg width="32" height="33" viewBox="0 0 32 33" fill="none" xmlns="http://www.w3.org/2000/svg">
<mask id="path-1-inside-1_648_6652" fill="white">
<path fill-rule="evenodd" clip-rule="evenodd" d="M0 5.00006V29.0001L3.99768 32.9977H28.0023L32 29.0001V5.00006L28 1.00006L28.0023 0.997742H3.99768L4 1.00006L0 5.00006Z"/>
</mask>
<path fill-rule="evenodd" clip-rule="evenodd" d="M0 5.00006V29.0001L3.99768 32.9977H28.0023L32 29.0001V5.00006L28 1.00006L28.0023 0.997742H3.99768L4 1.00006L0 5.00006Z" fill="white"/>
<path d="M0 5.00006L-0.707107 4.29295L-1 4.58585V5.00006H0ZM0 29.0001H-1V29.4143L-0.707107 29.7072L0 29.0001ZM3.99768 32.9977L3.29057 33.7048L3.58347 33.9977H3.99768V32.9977ZM28.0023 32.9977V33.9977H28.4165L28.7094 33.7048L28.0023 32.9977ZM32 29.0001L32.7071 29.7072L33 29.4143V29.0001H32ZM32 5.00006H33V4.58585L32.7071 4.29295L32 5.00006ZM28 1.00006L27.2929 0.292954L26.5858 1.00006L27.2929 1.70717L28 1.00006ZM28.0023 0.997742L28.7094 1.70485L30.4165 -0.0022583H28.0023V0.997742ZM3.99768 0.997742V-0.0022583H1.58347L3.29057 1.70485L3.99768 0.997742ZM4 1.00006L4.70711 1.70717L5.41421 1.00006L4.70711 0.292954L4 1.00006ZM-1 5.00006V29.0001H1V5.00006H-1ZM-0.707107 29.7072L3.29057 33.7048L4.70479 32.2906L0.707107 28.293L-0.707107 29.7072ZM3.99768 33.9977H28.0023V31.9977H3.99768V33.9977ZM28.7094 33.7048L32.7071 29.7072L31.2929 28.293L27.2952 32.2906L28.7094 33.7048ZM33 29.0001V5.00006H31V29.0001H33ZM32.7071 4.29295L28.7071 0.292954L27.2929 1.70717L31.2929 5.70717L32.7071 4.29295ZM28.7071 1.70717L28.7094 1.70485L27.2952 0.290635L27.2929 0.292954L28.7071 1.70717ZM28.0023 -0.0022583H3.99768V1.99774H28.0023V-0.0022583ZM3.29057 1.70485L3.29289 1.70717L4.70711 0.292954L4.70479 0.290635L3.29057 1.70485ZM3.29289 0.292954L-0.707107 4.29295L0.707107 5.70717L4.70711 1.70717L3.29289 0.292954Z" fill="#B0BAC9" mask="url(#path-1-inside-1_648_6652)"/>
<path fill-rule="evenodd" clip-rule="evenodd" d="M20.1307 9.26966C20.4236 9.56255 20.4236 10.0374 20.1307 10.3303L13.4611 17L20.1307 23.6697C20.4236 23.9625 20.4236 24.4374 20.1307 24.7303C19.8378 25.0232 19.363 25.0232 19.0701 24.7303L11.8701 17.5303C11.7294 17.3897 11.6504 17.1989 11.6504 17C11.6504 16.8011 11.7294 16.6103 11.8701 16.4697L19.0701 9.26966C19.363 8.97676 19.8378 8.97676 20.1307 9.26966Z" fill="#B0BAC9"/>
</svg>
