<svg width="24" height="24" viewBox="0 0 24 24" fill="none" xmlns="http://www.w3.org/2000/svg">
<path d="M12 2C6.5 2 2 6.5 2 12C2 17.5 6.5 22 12 22C17.5 22 22 17.5 22 12C22 6.5 17.5 2 12 2Z" fill="#66B95A"/>
<path d="M13.2998 11H10.6998C10.1998 11 9.7998 10.6 9.7998 10.1C9.7998 9.60005 10.1998 9.20005 10.6998 9.20005H14.3998C14.9998 9.20005 15.3998 8.80005 15.3998 8.20005C15.3998 7.60005 14.9998 7.20005 14.3998 7.20005H12.9998V6.30005C12.9998 5.70005 12.5998 5.30005 11.9998 5.30005C11.3998 5.30005 10.9998 5.70005 10.9998 6.30005V7.20005H10.6998C9.0998 7.20005 7.7998 8.50005 7.7998 10.1C7.7998 11.7 9.0998 13 10.6998 13H13.1998C13.6998 13 14.0998 13.4 14.0998 13.9C14.0998 14.4 13.6998 14.8 13.1998 14.8H9.4998C8.8998 14.8 8.4998 15.2 8.4998 15.8C8.4998 16.4 8.8998 16.8 9.4998 16.8H10.9998V17.7C10.9998 18.3 11.3998 18.7 11.9998 18.7C12.5998 18.7 12.9998 18.3 12.9998 17.7V16.8H13.2998C14.8998 16.8 16.1998 15.5 16.1998 13.9C16.1998 12.3 14.8998 11 13.2998 11Z" fill="white"/>
</svg>
