<svg width="9" height="9" viewBox="0 0 9 9" fill="none" xmlns="http://www.w3.org/2000/svg">
<path fill-rule="evenodd" clip-rule="evenodd" d="M4.5499 0.300049C3.42249 0.300049 3.28208 0.30489 2.83872 0.32564C1.33089 0.394807 0.493969 1.23103 0.424802 2.73887C0.404744 3.18222 0.399902 3.32332 0.399902 4.45005C0.399902 5.57747 0.404744 5.71857 0.424802 6.16123C0.493969 7.66837 1.33089 8.50598 2.83872 8.57515C3.28208 8.59521 3.42249 8.60005 4.5499 8.60005C5.67732 8.60005 5.81842 8.59521 6.26178 8.57515C7.76684 8.50598 8.60722 7.66976 8.675 6.16123C8.69506 5.71857 8.6999 5.57747 8.6999 4.45005C8.6999 3.32332 8.69506 3.18222 8.675 2.73887C8.60722 1.23311 7.76961 0.394116 6.26178 0.32564C5.81842 0.30489 5.67732 0.300049 4.5499 0.300049ZM4.54991 1.04836C5.65796 1.04836 5.78938 1.05251 6.22721 1.07257C7.35255 1.12375 7.87683 1.65703 7.92871 2.77338C7.94807 3.2112 7.95222 3.34193 7.95222 4.44998C7.95222 5.55803 7.94807 5.68945 7.92871 6.12658C7.87683 7.24224 7.35324 7.7769 6.22721 7.82808C5.78938 7.84745 5.65866 7.85229 4.54991 7.85229C3.44186 7.85229 3.31045 7.84814 2.87331 7.82808C1.7459 7.7762 1.22369 7.24085 1.17181 6.12658C1.15245 5.68945 1.14761 5.55803 1.14761 4.44998C1.14761 3.34193 1.15245 3.21051 1.17181 2.77338C1.223 1.65634 1.74728 1.12306 2.87331 1.07188C3.31045 1.05182 3.44186 1.04836 4.54991 1.04836ZM2.41888 4.45005C2.41888 3.27283 3.37338 2.31902 4.54991 2.31902C5.72643 2.31902 6.68093 3.27352 6.68093 4.45005C6.68093 5.62726 5.72643 6.58107 4.54991 6.58107C3.37338 6.58107 2.41888 5.62726 2.41888 4.45005ZM4.54991 5.83329C3.78562 5.83329 3.16658 5.21425 3.16658 4.44996C3.16658 3.68636 3.78562 3.06662 4.54991 3.06662C5.31351 3.06662 5.93394 3.68567 5.93394 4.44996C5.93394 5.21425 5.31351 5.83329 4.54991 5.83329ZM6.26662 2.23533C6.26662 1.96004 6.49003 1.73733 6.76462 1.73733C7.0406 1.73733 7.26331 1.96004 7.26331 2.23533C7.26331 2.51061 7.03991 2.73333 6.76462 2.73333C6.48934 2.73333 6.26662 2.50992 6.26662 2.23533Z" fill="white"/>
</svg>
