<svg width="17" height="17" viewBox="0 0 17 17" fill="none" xmlns="http://www.w3.org/2000/svg">
<path d="M8.50016 15.5834C8.3585 15.5834 8.21683 15.5125 8.07516 15.4417L6.021 13.9542L3.96683 15.4417C3.75433 15.5834 3.471 15.5834 3.2585 15.5125C2.97516 15.3709 2.8335 15.1584 2.8335 14.875V3.89585C2.8335 2.47919 3.896 1.41669 5.171 1.41669H11.7585C13.1043 1.41669 14.1668 2.47919 14.1668 3.89585V14.875C14.1668 15.1584 14.0252 15.3709 13.8127 15.5125C13.6002 15.6542 13.3168 15.5834 13.1043 15.4417L11.0502 13.9542L8.996 15.4417C8.7835 15.5125 8.64183 15.5834 8.50016 15.5834ZM6.021 12.3959C6.16266 12.3959 6.30433 12.4667 6.446 12.5375L8.50016 14.025L10.5543 12.5375C10.7668 12.3959 11.121 12.3959 11.3335 12.5375L12.6793 13.4584V3.89585C12.7502 3.32919 12.3252 2.83335 11.8293 2.83335H5.171C4.67516 2.83335 4.25016 3.32919 4.25016 3.89585V13.5292L5.596 12.6084C5.73766 12.4667 5.87933 12.3959 6.021 12.3959Z" fill="#FD931A"/>
<path d="M8.1456 10.0583C8.00394 10.0583 7.79144 9.98751 7.7206 9.91668L6.30394 8.78334C6.0206 8.50001 5.94977 8.00418 6.2331 7.72085C6.51644 7.43751 6.94144 7.36668 7.22477 7.65001L8.07477 8.35835L9.70394 6.51668C9.98727 6.23335 10.4123 6.23335 10.6956 6.44585C10.9789 6.72918 10.9789 7.15418 10.7664 7.43751L8.71227 9.84584C8.5706 9.98751 8.3581 10.0583 8.1456 10.0583Z" fill="#FD931A"/>
</svg>
