<svg width="26" height="24" viewBox="0 0 26 24" fill="none" xmlns="http://www.w3.org/2000/svg">
<path fill-rule="evenodd" clip-rule="evenodd" d="M23.1365 0.224831C23.4177 0.115456 23.7341 0.0177999 24.0701 0.00217485C24.406 -0.0134501 24.7693 0.0529559 25.1365 0.271706C25.4998 0.48655 25.8006 0.888894 25.9177 1.31858C26.0349 1.74827 26.0076 2.18967 25.9021 2.66233L22.1677 21.7912L22.1326 21.8811C22.1326 21.8811 21.9216 22.4397 21.3787 22.8772C20.8396 23.3108 19.8201 23.5569 18.8123 23.1155L18.7029 23.0686L13.8709 19.3615L10.9881 21.9865L10.9529 22.0139C10.9529 22.0139 10.3318 22.4944 9.55837 22.26L9.55112 22.2589C9.5049 22.2518 9.47834 22.2477 9.44118 22.2365C9.43611 22.2349 9.43104 22.2317 9.42565 22.2284C9.41859 22.224 9.41098 22.2192 9.40212 22.217L9.41196 22.2193C9.40464 22.2167 9.39752 22.2135 9.3904 22.2092C9.3279 22.1858 9.2654 22.1584 9.2068 22.1233C9.05837 22.0295 8.93337 21.9123 8.8279 21.7717C8.60915 21.4983 8.43337 21.1389 8.25368 20.5647C8.06161 19.9589 7.48616 18.0773 7.03219 16.5929C6.76599 15.7225 6.54157 14.9886 6.46071 14.7287L1.5779 13.0842H1.57009C1.57009 13.0842 1.24587 12.9709 0.906022 12.7287C0.570085 12.4905 0.101335 12.0569 0.0114912 11.3342C-0.0431968 10.9084 0.105241 10.4944 0.288835 10.2248C0.472428 9.9553 0.683366 9.78342 0.874772 9.65842C1.17227 9.45389 1.45994 9.33787 1.56613 9.29865C1.91673 9.15084 6.94186 7.03231 12.0506 4.88108C13.3021 4.35394 14.5579 3.82506 15.7516 3.32234C17.0878 2.75964 18.3461 2.22971 19.4334 1.77171C19.8512 1.59647 20.2401 1.4333 20.597 1.28358C21.9981 0.695722 22.9053 0.315117 23.1326 0.224831H23.1365ZM23.9677 2.09434C23.9676 2.08322 23.9674 2.07102 23.9685 2.05296C23.9437 2.05296 23.9364 2.05296 23.93 2.05534C23.9213 2.05857 23.9142 2.0662 23.867 2.08421C23.781 2.11936 22.2615 2.75217 20.2068 3.61546C18.4848 4.34226 16.3292 5.25015 14.1149 6.18276C13.6872 6.3629 13.2573 6.54397 12.8279 6.72483C7.53102 8.9553 2.32009 11.1506 2.32009 11.1506L2.28884 11.1623L2.25759 11.178C2.25759 11.178 2.23024 11.1897 2.22634 11.1897C2.22829 11.1897 2.23122 11.1907 2.23415 11.1916C2.23708 11.1926 2.24001 11.1936 2.24196 11.1936V11.1975L8.0779 13.1623L8.0818 13.1819L20.2576 5.63889C20.2576 5.63889 20.8865 5.31858 20.8591 5.77171C20.8591 5.77171 20.992 5.84983 20.5935 6.22093C20.1951 6.59202 10.9373 15.2209 10.9373 15.2209L10.1873 20.01L13.7576 16.7561L19.6677 21.2873C19.992 21.4162 20.0545 21.3772 20.1326 21.3147C20.199 21.2622 20.2279 21.2098 20.2444 21.1797C20.2464 21.1762 20.2481 21.173 20.2498 21.1701L23.949 2.24046V2.22874C23.9684 2.14265 23.9681 2.12171 23.9677 2.09434Z" fill="#9B9B9B"/>
</svg>
