<svg width="9" height="8" viewBox="0 0 9 8" fill="none" xmlns="http://www.w3.org/2000/svg">
<path d="M8.6501 1.13628C8.34507 1.27184 8.01653 1.36314 7.67208 1.40464C8.02414 1.19369 8.2932 0.860302 8.42116 0.462594C8.09192 0.657644 7.72741 0.799436 7.33939 0.875519C7.02952 0.544211 6.58616 0.337402 6.09716 0.337402C4.99741 0.337402 4.18954 1.36314 4.43785 2.42831C3.02339 2.35707 1.76801 1.67924 0.928331 0.649344C0.482206 1.41433 0.697314 2.41586 1.45538 2.92285C1.17664 2.91386 0.914498 2.83709 0.684864 2.70982C0.666189 3.49832 1.23197 4.23633 2.05091 4.40094C1.81159 4.46596 1.54876 4.48118 1.28177 4.42999C1.49826 5.10644 2.12837 5.59822 2.87261 5.61205C2.15535 6.17369 1.25411 6.42476 0.350098 6.31824C1.10401 6.80172 1.99834 7.08323 2.95976 7.08323C6.12206 7.08323 7.90794 4.4127 7.80004 2.01746C8.13342 1.77814 8.42185 1.47796 8.6501 1.13628Z" fill="white"/>
</svg>
