<svg width="14" height="14" viewBox="0 0 14 14" fill="none" xmlns="http://www.w3.org/2000/svg">
<path fill-rule="evenodd" clip-rule="evenodd" d="M14 7C14 10.866 10.866 14 7 14C3.13401 14 0 10.866 0 7C0 3.13401 3.13401 0 7 0C10.866 0 14 3.13401 14 7ZM12.4 7C12.4 9.98234 9.98234 12.4 7 12.4C5.63438 12.4 4.38717 11.8931 3.43625 11.0571L11.8316 4.58575C12.1953 5.31226 12.4 6.13223 12.4 7ZM10.9103 3.27576L2.40246 9.83385C1.89363 9.0101 1.6 8.03934 1.6 7C1.6 4.01766 4.01766 1.6 7 1.6C8.53848 1.6 9.92669 2.24338 10.9103 3.27576Z" fill="#FD931A"/>
</svg>
